<?xml version="1.0" encoding="utf-8"?>
<!-- Generator: Adobe Illustrator 18.1.1, SVG Export Plug-In . SVG Version: 6.00 Build 0)  -->
<svg version="1.1" id="Layer_1" xmlns="http://www.w3.org/2000/svg" xmlns:xlink="http://www.w3.org/1999/xlink" x="0px" y="0px"
	 viewBox="0 0 250 250" enable-background="new 0 0 250 250" xml:space="preserve">
<g>
	<path fill="#FFFFFF" d="M39.5,60.4h0.2c0,0.2-1.2,3-3.6,8.2h0.2c6.6-3.7,14.4-5.5,23.2-5.5h2.7c10.8,0,20.2,3.5,28.2,10.5
		c3.5,1.3,5.3,2.5,5.3,3.8v0.5c0,0.5-1.8,1.1-5.5,1.5c-13.2,4.9-20.2,7.4-20.9,7.4v0.7c-0.2,0-0.5-0.2-0.7-0.7
		c-1.7,0-2.6,0.5-2.6,1.4h-0.5c0-0.5-0.3-0.7-0.8-0.7l-1.2,0.2v1.5L62.2,88h-1.4v0.5l0.2,1.3h-0.2c-0.2,0-0.7-0.5-1.5-1.5h-1.9
		l0.2,1.8h-0.2c-0.8-0.7-1.2-1.3-1.2-1.8h-0.5v2.2c-0.5,0-1-0.8-1.5-2.5h-0.9c-0.4,0-0.7,1-0.9,2.9h-0.5c-0.2-2.3-0.8-3.4-1.6-3.4
		v0.2c-0.3,1.4-0.5,2.5-0.5,3.4h-0.5c-0.7-1.2-1.1-2.2-1.1-2.9v-0.9c-0.2,0-0.4-0.1-0.7-0.2v0.7c0,0.9,0.1,2.1,0.2,3.6
		c-1.7-1.5-2.6-3-2.6-4.6h-0.5c-0.5,0-1,1.4-1.5,4.3h-0.5c-0.5-1.4-0.7-2.6-0.7-3.6v-1.2h-0.2L39.9,90h-0.2l-0.5-3.2
		c0.2-0.2,0.2-0.5,0.2-0.9L39,85.6h-0.5c-1.4,1.3-2.1,2.4-2.2,3.4h-0.5v-2.2c0-0.7,0.2-1.3,0.5-1.9l-4.6-2c-1.4,0.7-3,1.7-4.8,2.9
		h-0.2v-0.2c0-0.2,1.2-1.4,3.6-3.6c-0.5-0.3-1-0.5-1.4-0.5H28c-2.2,0-4.5-0.2-6.8-0.7v-0.5c1.7-0.2,3.5-0.5,5.3-0.9
		c-0.5-0.8-0.8-1.2-0.9-1.2c-1.5,0-3.5-0.3-6-0.8V77h3.6l1.6-0.2v-0.5c0-7.7,4.6-12.9,13.7-15.6C38.8,60.5,39.1,60.4,39.5,60.4z
		 M45.9,80.4c4.8,2,8.8,3,12,3h0.2v-0.2c-4.9-1.8-7.4-4.8-7.4-9h-0.2C47.4,76.7,45.9,78.8,45.9,80.4z M52.8,73.2
		c0,3,0.9,4.8,2.7,5.3c0-0.2,0.5-1.1,1.6-2.5c-2.1-1.2-3.2-2.4-3.2-3.4h-0.7C53,72.7,52.8,72.9,52.8,73.2z M73.7,47.3h1.9
		c8.8,0,16.5,2.4,23.3,7.1c2.2,2.8,3.3,7.2,3.3,13.2c-0.5,0.5-1.7,0.9-3.8,1.2c-4.6,0-8.9-3.9-13-11.7c-0.7-1.4-3.1-2.8-7.1-4.1
		c-5.8-1.6-9.5-2.5-11.3-2.5h-4.6c-2.2,0-5,0.4-8.4,1.1c2.7-1.6,6.8-2.9,12.1-3.9C68.6,47.5,71.1,47.3,73.7,47.3z M57.9,76.5
		c0,0.3-0.3,0.9-0.9,1.8v0.2c0.5,0,0.9,0.1,1.2,0.2c0.5-0.9,0.7-1.4,0.7-1.8L57.9,76.5z M59.7,77.2l-0.9,2.2c0.1,0,0.6,0.5,1.5,1.4
		h0.5c0.5,0,1.6-0.5,3.3-1.4c-0.3-1-0.5-1.7-0.5-2c-0.3,0.2-0.5,0.2-0.7,0.2C62.4,77.7,61.4,77.5,59.7,77.2z M64.5,77.2v0.2
		c0,0.8,0.4,1.5,1.1,2.2c0.1,0,1.3,0.2,3.8,0.5c-1.6-2-2.3-3.2-2.3-3.6C66.8,76.5,66,76.7,64.5,77.2z M67.5,76
		c0.8,1.1,1.6,2.2,2.6,3.2h0.2c0-0.2,0.4-0.8,1.1-1.8l-2.7-2.3C67.9,75.4,67.6,75.7,67.5,76z M75.1,71.5c0,4.6-2.4,8.3-7.1,11h-0.2
		v0.2h0.5c7.3-1.1,13.1-2.3,17.5-3.5c-1.6-3.2-3.8-5.5-6.7-6.8c-1.9-0.6-3.1-0.9-3.6-0.9H75.1z M72,71c0,0.4-0.9,1.5-2.7,3.4v0.2
		c0.9,1.1,1.7,1.8,2.5,2.1c0.8-2,1.2-3.9,1.2-5.5V71H72z M112.5,158c0.8,0,5,0.4,12.8,1.3c6.3-0.9,10.1-1.3,11.5-1.3
		c8.6,0,15.9,4,21.8,12.1c3.6,3.5,7.5,6.4,11.7,8.8c3.2,2.7,4.8,4.7,4.8,6c0,0.8-2.1,2-6.2,3.6c-1.2,0.5-4.8,4-11,10.5
		c-4.5,4-13.3,6-26.6,6h-0.7c-11.6,0-22.6-3.3-32.9-9.8v-0.7c3.4-1.1,7-1.6,10.8-1.6l19.5,1.2c5,0,13.9-1.4,26.6-4.3
		c1.3-0.8,1.9-1.3,1.9-1.6V187c0-3.9-11.2-6.3-33.5-7h-4.6c-10.9,0-19.4,2-25.6,6c-6.9,3.8-11.4,5.6-13.7,5.6
		c-0.9,0-1.5-0.4-1.9-1.3v-0.9c0.7-4.7,5.7-10.7,15-17.9c9.1-9,15.9-13.5,20.2-13.5H112.5z M106.5,124.4c3.2,0,5.6,1.8,7.1,5.3
		c0.5,1,0.8,2.3,0.8,3.9v0.9l-0.2,0.5c-1.1-0.6-2.1-0.9-2.9-0.9c-1.8,1.9-3.8,2.8-6,2.8h-1.2c-3.5-0.7-5.3-2.5-5.3-5.3
		C98.9,127.9,101.4,125.5,106.5,124.4z M102.4,166.9v0.2c1.3,0.3,2,0.6,2,0.9c-2.3,0.9-3.5,1.4-3.6,1.4c0,0.5,0.7,0.8,2.1,0.8
		c5.4-2.7,9.1-4.1,11-4.1h1.8c0.9,0.6,1.6,0.9,2.1,0.9h0.5c1.2-0.8,1.8-1.5,1.8-2.1c0-0.9-1.1-1.4-3.4-1.5
		C114.1,163.5,109.4,164.6,102.4,166.9z M136.5,118.2c3,2.6,7.3,7.2,13.1,13.8c2,2.6,2.9,5,2.9,7.3c0,3.4-2.2,5.4-6.6,6h-0.2
		c-2.5,0-8.1-1.4-16.8-4.1l-2.1-0.2l-4.6,2.2c-0.1,0-0.5,0.1-1.4,0.2c-2.2,0-3.5-1.7-3.9-5v-0.2c0-3.8,1.5-6,4.6-6.6
		c3.8,0,7.7-3.8,12-11.5C134.8,118.8,135.8,118.2,136.5,118.2z M131.5,165.9c0.2,0.6,0.5,0.9,0.7,0.9c1.4-1,2.4-2,3-2.9
		C132.7,164.2,131.5,164.9,131.5,165.9z M136,166.4v1.2h3.3l2.9-0.2v-0.5c-0.2-0.5-0.7-0.7-1.5-0.7h-1.6v-0.5l0.9-0.2V165h-0.2
		C137.3,165.3,136,165.8,136,166.4z M136.3,139.6c0.3,0.9,1.1,1.4,2.3,1.4c2.7,0,4.4-0.9,5.3-2.8c0-0.9-0.4-1.7-1.2-2.5
		C138.4,136.1,136.3,137.4,136.3,139.6z M168.9,37.7c1.4,0,2.1,1.4,2.1,4.1c0,0.9,4.3,1.7,12.9,2.3c17.8,3.4,29.3,8.2,34.6,14.2
		c9.8,8,14.7,14.7,14.7,20.2v2.3c0,0.5-0.4,0.7-1.1,0.7c-2.3,0-4.7-0.1-7.2-0.2c-2.7,0.2-4.7,0.2-6.2,0.2l-2.5-0.2
		c2.4,2,3.9,3.4,4.6,4.3v0.2h-0.2c-3.8-2.6-6.1-3.9-6.9-3.9h-0.5c2.7,2.5,4,3.9,4.1,4.3v0.2H217c-3-2.1-5.4-3.3-7-3.6
		c1.2,1.4,1.8,2.7,1.8,3.9V89h-0.5c0-1.1-1.1-2.7-3.4-4.8h-0.2l0.7,2.8l-0.5,2.9h-0.2c-0.2,0-0.9-1.4-1.9-4.3h-0.4
		c0,2.6-0.2,4.4-0.7,5.5h-0.5c0-1.7-0.6-3.5-1.9-5.3c0,2.5-0.9,4.3-2.7,5.5c0.2-1.6,0.2-2.8,0.2-3.6v-1.2c-0.3,0.2-0.5,0.2-0.7,0.2
		v1.4c0,0.7-0.3,1.7-0.9,2.9h-0.5c0-0.9-0.2-2.1-0.5-3.6h-0.9c0,0.3-0.2,1.4-0.7,3.4h-0.5c-0.2-2-0.6-2.9-1.1-2.9h-0.9
		c-0.5,1.6-0.9,2.5-1.4,2.5V88c-1,1.3-1.6,2-1.6,2H190l0.2-1.8h-2c-0.8,1-1.3,1.5-1.4,1.5h-0.2l0.2-1.3v-0.2l-1.2-0.2h-0.2
		c-0.9,0.9-1.4,1.3-1.5,1.3h-0.2l0.2-1.3l-0.5-0.2H182v0.5h-0.5c0-0.5-1-0.9-2.9-1.2c0,0.3-0.2,0.5-0.5,0.5c0-0.5-1.5-1.1-4.5-1.6
		c-9.2-4.6-15.6-6.9-19-6.9c-1.9-0.2-2.8-0.5-2.8-1.1v-0.5c0-1.2,2.2-2.8,6.7-4.8c8-7.3,20.4-11,37.2-11c2.6,0,6.9,0.3,12.9,0.8
		c-4.6-9.3-12.9-13.9-24.7-13.9c-10.2,0-17.5,2.3-21.8,6.9c-2.3,7.3-4.4,11-6.2,11c-1.6,0-3.4,1.3-5.5,3.9h-0.2l-0.7-3.2
		c0-0.5,1-4.3,2.9-11.3h-0.2c-3,2-4.6,3.8-4.6,5.3h-0.2c-0.4,0-0.6-0.9-0.7-2.8c0-9.3,4.2-15.7,12.7-19.2
		C163.7,38.3,166.9,37.9,168.9,37.7z M162.1,79.4c7.9,1.7,13.8,2.8,17.6,3.3h0.2v-0.2c-5-2.5-7.5-6.3-7.5-11.3
		c-5.7,1.9-8.6,3.6-8.6,5C162.6,77.4,162.1,78.5,162.1,79.4z M174.6,71v0.2c0,1.5,0.4,3.3,1.2,5.5c0.4,0,1.2-0.7,2.3-2.1v-0.2
		c-1.6-1.7-2.5-2.9-2.8-3.6C175,70.9,174.8,71,174.6,71z M176.5,77.7c0.4,1,0.7,1.5,0.9,1.5h0.2c0-0.3,0.8-1.4,2.5-3.2
		c0-0.2-0.4-0.5-1.2-0.9C177.3,76.4,176.5,77.3,176.5,77.7z M180.6,76.5c0,0.4-0.7,1.5-2.2,3.4v0.2h0.8c0.1,0,0.3-0.2,0.7-0.5
		l0.5,0.2l1.4-0.2h0.5l0.7-2.2v-0.2L180.6,76.5z M184.2,77.7c0-0.2-0.1-0.2-0.4-0.2c-0.2,0.7-0.2,1.4-0.2,2.2
		c1.7,0.8,2.8,1.2,3.2,1.2h0.5c0.4,0,0.8-0.5,1.2-1.6c-0.2-1.3-0.5-2-0.9-2C186.3,77.5,185.2,77.7,184.2,77.7z M188.7,77.2l0.7,1.5
		c0.3-0.2,0.7-0.2,1.3-0.2v-0.2c-0.6-0.9-0.9-1.4-0.9-1.8C189,76.7,188.7,77,188.7,77.2z M197.1,73.2c0,4.8-2.6,8.2-7.7,10v0.2
		c3.6,0,7.9-1.1,12.8-3.3c0-1.6-1.6-3.9-4.8-6.9H197.1z M193.7,71.9c0,1.2-1.1,2.6-3.3,4.3c1.1,1.5,1.8,2.2,2.1,2.2
		c1.4-1.2,2.1-2.9,2.1-5.3c-0.1-0.9-0.3-1.3-0.7-1.3H193.7z"/>
</g>
<g>
</g>
<g>
</g>
<g>
</g>
<g>
</g>
<g>
</g>
</svg>
